<?xml version="1.0" standalone="no"?><!DOCTYPE svg PUBLIC "-//W3C//DTD SVG 1.1//EN" "http://www.w3.org/Graphics/SVG/1.1/DTD/svg11.dtd"><svg t="1533889728161" class="icon" style="" viewBox="0 0 1024 1024" version="1.1" xmlns="http://www.w3.org/2000/svg" p-id="1037" xmlns:xlink="http://www.w3.org/1999/xlink" width="200" height="200"><defs><style type="text/css"></style></defs><path d="M277.9 742s167.9-294.1 465.3-465.3C575.7 577.8 277.9 742 277.9 742z" fill="#FFFFFF" p-id="1038"></path><path d="M743.1 742S575.2 447.9 277.8 276.7C445.3 577.8 743.1 742 743.1 742z" fill="#FFFFFF" p-id="1039"></path><path d="M512 512m-448 0a448 448 0 1 0 896 0 448 448 0 1 0-896 0Z" fill="#50dafe" p-id="1040" data-spm-anchor-id="a313x.7781069.0.i7" class="selected"></path><path d="M512 267.1m-63 0a63 63 0 1 0 126 0 63 63 0 1 0-126 0Z" fill="#ffffff" p-id="1041" data-spm-anchor-id="a313x.7781069.0.i9" class="selected"></path><path d="M512 797.2s63-220.5 63-306.3-25.5-101.5-63-101.5-63 15.8-63 101.5 63 306.3 63 306.3z" fill="#ffffff" p-id="1042" data-spm-anchor-id="a313x.7781069.0.i8" class="selected"></path></svg>