<?xml version="1.0" standalone="no"?><!DOCTYPE svg PUBLIC "-//W3C//DTD SVG 1.1//EN" "http://www.w3.org/Graphics/SVG/1.1/DTD/svg11.dtd"><svg t="1533889824785" class="icon" style="" viewBox="0 0 1024 1024" version="1.1" xmlns="http://www.w3.org/2000/svg" p-id="1458" xmlns:xlink="http://www.w3.org/1999/xlink" width="200" height="200"><defs><style type="text/css"></style></defs><path d="M863.078419 1024 160.921581 1024c-35.267423 0-63.83244-28.565017-63.83244-63.704775L97.089141 159.261937c0-35.203591 28.596933-61.247226 63.83244-61.247226l223.413539 0 0 63.896272L192.837801 161.910984c-17.617753 0-31.91622 14.26655-31.91622 31.852387l0 734.679466c0 17.585837 14.298467 31.852387 31.91622 31.852387l638.324398 0c17.617753 0 31.91622-14.26655 31.91622-31.852387L863.078419 193.795287c0-17.617753-14.298467-31.884304-31.91622-31.884304l-191.49732 0L639.66488 98.014711l223.413539 0c35.235507 0 63.83244 26.043635 63.83244 61.247226l0 801.033288C926.910859 995.434983 898.313926 1024 863.078419 1024zM416.25134 384.973445l319.162199 0 0 64.151602L416.25134 449.125047 416.25134 384.973445zM416.25134 544.84179l319.162199-0.670241 0 64.534597L416.25134 608.706146 416.25134 544.84179zM735.413539 766.914849 416.25134 768.287246l0-63.83244 319.162199 0L735.413539 766.914849zM288.586461 385.260691l63.83244-0.989403 0 64.821843L288.586461 449.093131 288.586461 385.260691zM288.586461 543.469393l63.83244 1.372397 0 63.864356L288.586461 608.706146 288.586461 543.469393zM352.4189 768.287246l-63.83244-2.042638L288.586461 704.454806l63.83244 0L352.4189 768.287246zM703.49732 195.774093c17.64967 0 31.91622 14.26655 31.91622 31.852387s0 29.969331 0 29.969331L288.586461 257.595811c0 0 0-12.41541 0-29.969331s14.26655-31.852387 31.91622-31.852387l95.74866 0c0 0 0.382995-45.289116 0.382995-97.057225 0-53.778831 41.523002-98.716868 95.365665-98.716868s96.801895 47.236005 96.801895 99.03603C608.801895 154.76175 607.74866 195.774093 607.74866 195.774093L703.49732 195.774093zM512 95.557162c-17.64967 0-31.91622 16.787932-31.91622 34.373769 0 17.617753 14.298467 31.91622 31.91622 31.91622 17.64967 0 31.91622-14.298467 31.91622-31.91622C543.91622 112.37701 529.64967 95.557162 512 95.557162z" p-id="1459" fill="#50dafe"></path></svg>