<?xml version="1.0" standalone="no"?><!DOCTYPE svg PUBLIC "-//W3C//DTD SVG 1.1//EN" "http://www.w3.org/Graphics/SVG/1.1/DTD/svg11.dtd"><svg t="1533889876217" class="icon" style="" viewBox="0 0 1024 1024" version="1.1" xmlns="http://www.w3.org/2000/svg" p-id="1747" xmlns:xlink="http://www.w3.org/1999/xlink" width="200" height="200"><defs><style type="text/css"></style></defs><path d="M690.16 572a136 136 0 0 1 28 2.96V276a80 80 0 0 0-80-80h-344a80 80 0 0 0-80 80v432a80 80 0 0 0 80 80h286.32a136 136 0 0 1 109.76-216zM537.44 480v29.04H488v22.08h49.44V560H488v40h-44.64v-40H392v-28.96h51.12v-22.08H392V480h41.12l-54.64-96.72h48q32.16 67.12 40.8 88.72h0.96q1.12-3.04 2.64-8 2.56-7.44 20.24-43.84l17.52-36.96h45.2L497.44 480z" p-id="1748" fill="#50dafe"></path><path d="M689.84 588a120 120 0 1 0 120 120 120 120 0 0 0-120-120zM678.4 767.28a24 24 0 0 1-33.92 0l-46.8-46.8a8 8 0 0 1 11.28-11.28L656 756a8 8 0 0 0 11.36 0l103.28-103.6A8 8 0 0 1 781.92 664z" p-id="1749" fill="#50dafe"></path></svg>